# xmcd
#
# Track frame offsets:
#	182
#	13695
#	29105
#	43187
#	53245
#	65007
#	76010
#	90587
#	103800
#	114300
#	129280
#	138967
#	157075
#	169932
#	181062
#	191585
#	203035
#	221275
#	232780
#	244262
#	256912
#	268570
#
# Disc length: 3753 seconds
# Revision: 4
# Processed by: cddbd v1.5.2PL0 Copyright (c) Steve Scherf et al.
# Submitted via: dBpowerAMP V12.0
#
DISCID=2c0ea716
DTITLE=John Lee Hooker - The Hook
DYEAR=1989
DGENRE=Pop Rock
TTITLE0=One Bourbon, One Scotch, One Beer
TTITLE1=Thelma
TTITLE2=Louise
TTITLE3=Dimples
TTITLE4=Boogie Chillen
TTITLE5=No Shoes
TTITLE6=Blues For Big Town
TTITLE7=Drive Me Away (Catfish Blues)
TTITLE8=Big Legs, Tight Skirt
TTITLE9=Sugar Mama
TTITLE10=Green Onions
TTITLE11=The House Rent Boogie
TTITLE12=Leave My Wife Alone
TTITLE13=Bottle Up And Go
TTITLE14=Keep Your Hands To Yourself
TTITLE15=Solid Sender
TTITLE16=I Feel Good
TTITLE17=Boom Boom
TTITLE18=Will The Circle Be Unbroken
TTITLE19=Hobo Blues
TTITLE20=Your Baby Ain't Sweet Like Mine
TTITLE21=I'm Going Upstairs
EXTD=
EXTT0=
EXTT1=
EXTT2=
EXTT3=
EXTT4=
EXTT5=
EXTT6=
EXTT7=
EXTT8=
EXTT9=
EXTT10=
EXTT11=
EXTT12=
EXTT13=
EXTT14=
EXTT15=
EXTT16=
EXTT17=
EXTT18=
EXTT19=
EXTT20=
EXTT21=
PLAYORDER=
